<svg width="24" height="24" viewBox="0 0 24 24" fill="none" xmlns="http://www.w3.org/2000/svg">
<path d="M22.351 8.019L15.981 1.649C14.9251 0.593178 13.4931 2.28882e-05 12 2.28882e-05C10.5068 2.28882e-05 9.07481 0.593178 8.01898 1.649L1.64898 8.019C0.593155 9.07483 0 10.5068 0 12C0 13.4932 0.593155 14.9252 1.64898 15.981L8.01898 22.351C9.07481 23.4068 10.5068 24 12 24C13.4931 24 14.9251 23.4068 15.981 22.351L22.351 15.981C23.4068 14.9252 24 13.4932 24 12C24 10.5068 23.4068 9.07483 22.351 8.019V8.019ZM12 15.953C11.4809 15.953 10.9668 15.8508 10.4872 15.6521C10.0076 15.4534 9.57186 15.1623 9.20479 14.7952C8.83772 14.4281 8.54654 13.9923 8.34788 13.5127C8.14923 13.0331 8.04698 12.5191 8.04698 12C8.04698 11.4809 8.14923 10.9669 8.34788 10.4873C8.54654 10.0077 8.83772 9.57188 9.20479 9.20481C9.57186 8.83774 10.0076 8.54656 10.4872 8.34791C10.9668 8.14925 11.4809 8.047 12 8.047C13.0484 8.047 14.0538 8.46348 14.7952 9.20481C15.5365 9.94614 15.953 10.9516 15.953 12C15.953 13.0484 15.5365 14.0539 14.7952 14.7952C14.0538 15.5365 13.0484 15.953 12 15.953Z" fill="black"/>
</svg>
