<!-- Generated by IcoMoon.io -->
<svg version="1.1" xmlns="http://www.w3.org/2000/svg" width="32" height="32" viewBox="0 0 32 32">
<title>uniF19D</title>
<path d="M0 0h32v32h-32v-32zM7.84 6.293q-1.093 0.027-1.84 0.72t-0.747 1.68q0.027 1.067 0.787 1.733t1.747 0.667h0.027q1.093-0.027 1.853-0.72t0.76-1.68q-0.027-0.72-0.413-1.28t-0.947-0.84-1.227-0.28zM21.44 12.64q-1.68 0.027-2.747 0.8-0.72 0.533-1.413 1.52v-1.973h-4.587q0.027 0.56 0.027 2.24 0 2.907-0.027 11.653h4.587v-7.76q0.027-0.747 0.187-1.12 0.827-1.68 2.347-1.707 0.88 0.027 1.427 0.547t0.733 1.173 0.187 1.427v7.44h4.587v-7.973q-0.053-3.12-1.52-4.72-1.467-1.52-3.787-1.547zM5.52 12.987v13.893h4.587v-13.893h-4.587z"></path>
</svg>
